HIERARCHY
ROOT Hips
{
	OFFSET 0.00000 0.00000 0.00000
	CHANNELS 6 Xposition Yposition Zposition Yrotation Zrotation Xrotation 
	JOINT Lumbar
	{
		OFFSET 0 0 0
		CHANNELS 3 Zrotation Xrotation Yrotation
		JOINT Neck
		{
			OFFSET 0.00 0.2701 0.00
			CHANNELS 3 Zrotation Xrotation Yrotation
			End Site
			{
				OFFSET 0.00 0.1379 0.00
			}
		}
		JOINT RightShoulder
		{
			OFFSET 0.0119 0.2289 0.1181
			CHANNELS 3 Zrotation Xrotation Yrotation
			JOINT RightElbow
			{
				OFFSET 0.00 -0.1475 0.00
				CHANNELS 2 Zrotation Yrotation
				JOINT RightWrist
				{
					OFFSET 0.00 -0.1605 0.00
					CHANNELS 2 Zrotation Xrotation
					End Site
					{
						OFFSET 0.0040 -0.1068 0.0006
					}
				}
			}
		}
		JOINT LeftShoulder
		{
			OFFSET 0.0119 0.2289 -0.1181
			CHANNELS 3 Zrotation Xrotation Yrotation
			JOINT LeftElbow
			{
				OFFSET 0.00 -0.1475 0.00
				CHANNELS 2 Zrotation Yrotation
				JOINT LeftWrist
				{
					OFFSET 0.00 -0.1605 0.00
					CHANNELS 2 Zrotation Xrotation
					End Site
					{
						OFFSET 0.0040 -0.1068 -0.0006
					}
				}
			}
		}
	}
	JOINT RightHip
	{
		OFFSET 0.0316 -0.0424 0.0458
		CHANNELS 3 Zrotation Xrotation Yrotation
		JOINT RightKnee
		{
			OFFSET 0.00 -0.2438 0.00
			CHANNELS 1 Zrotation
			JOINT RightAnkle
			{
				OFFSET 0.00 -0.2449 0.00
				CHANNELS 3 Zrotation Xrotation Yrotation
				End Site
				{
					OFFSET 0.1237 -0.0542 0.0051
				}
			}
		}
	}
	JOINT LeftHip
	{
		OFFSET 0.0316 -0.0424 -0.0458
		CHANNELS 3 Zrotation Xrotation Yrotation
		JOINT LeftKnee
		{
			OFFSET 0.00 -0.2438 0.00
			CHANNELS 1 Zrotation
			JOINT LeftAnkle
			{
				OFFSET 0.00 -0.2449 0.00
				CHANNELS 3 Zrotation Xrotation Yrotation
				End Site
				{
					OFFSET 0.1237 -0.0542 -0.0051
				}
			}
		}
	}
}
MOTION
Frames: 35
Frame Time: 0.02
-0 0.57926 -0 178.53781 0 2.76419 10.44731 -0.65562 -0.38983 -37.18295 2.84149 3.39584 27.78999 -13.66015 -1.86186 10.03454 83.55549 1.51047 2.00233 30.01005 3.93586 -0.96768 8.21415 -74.28462 -4.7723 -1.49269 2.63995 3.44587 15.47976 -21.02196 10.95656 -9.94002 -14.55589 1.62423 -3.26232 -11.59339 -15.89214 7.87158 7.83913 13.08615
0.00037 0.57928 0.00011 178.43396 0 2.76539 10.34655 -0.64084 -0.36983 -36.77196 2.80598 3.35483 27.36494 -13.57959 -1.96548 10.04145 83.64178 1.51675 1.99474 29.58724 3.97337 -0.8475 8.23743 -74.31478 -4.76203 -1.50806 2.711 3.4531 15.6028 -21.08585 10.94593 -9.92539 -14.56837 1.64174 -3.28087 -11.57011 -15.88797 7.84316 7.8313 13.17037
0.00073 0.57929 0.00022 178.33095 0 2.76663 10.24564 -0.62613 -0.35052 -36.36128 2.77086 3.31407 26.94051 -13.49963 -2.07005 10.04805 83.7278 1.52322 1.98752 29.16514 4.01052 -0.72812 8.26033 -74.34453 -4.7518 -1.52342 2.78204 3.46026 15.72504 -21.14979 10.93553 -9.91097 -14.581 1.65958 -3.29942 -11.54709 -15.88419 7.81501 7.82359 13.25396
0.0011 0.5793 0.00033 178.23036 0 2.76757 10.14348 -0.61109 -0.33428 -35.94828 2.7364 3.27434 26.51499 -13.42117 -2.17749 10.05293 83.81378 1.53075 1.98195 28.74209 4.04666 -0.61005 8.28148 -74.37261 -4.74151 -1.53931 2.85239 3.46711 15.84429 -21.21171 10.92499 -9.89663 -14.59361 1.67855 -3.31777 -11.52487 -15.88128 7.78729 7.81615 13.33607
0.00145 0.57932 0.00043 178.11703 0 2.76954 10.04836 -0.59729 -0.30237 -35.54813 2.69775 3.22963 26.09591 -13.33468 -2.26744 10.06627 83.90018 1.53298 1.96794 28.32449 4.08821 -0.4842 8.31132 -74.40918 -4.73141 -1.55288 2.92483 3.47552 15.97823 -21.28094 10.91403 -9.88114 -14.60548 1.69109 -3.33668 -11.49838 -15.87299 7.75686 7.80713 13.42628
0.00184 0.57933 0.00056 178.03071 0 2.7697 9.93815 -0.58123 -0.30326 -35.12083 2.66846 3.19519 25.66317 -13.26531 -2.39582 10.06217 83.98548 1.54619 1.97161 27.89548 4.11823 -0.37547 8.32314 -74.42798 -4.72103 -1.57102 2.9938 3.48067 16.08176 -21.33691 10.90477 -9.86861 -14.61949 1.71751 -3.35472 -11.48099 -15.87659 7.73247 7.80157 13.49907
0.00235 0.57933 0.00074 178.02004 0 2.76157 9.78432 -0.55524 -0.40134 -34.60708 2.6613 3.19188 25.18312 -13.24239 -2.62463 10.00389 84.07103 1.5933 2.02759 27.42461 4.11654 -0.30793 8.28034 -74.39452 -4.70841 -1.60544 3.04573 3.47605 16.09424 -21.33676 10.89321 -9.85983 -14.63502 1.78203 -3.36781 -11.48857 -15.90985 7.72246 7.8047 13.52555
0.00289 0.57933 0.00095 178.03653 0 2.75215 9.61557 -0.52753 -0.53149 -34.06767 2.66417 3.19841 24.69064 -13.23682 -2.89335 9.92896 84.15501 1.65094 2.10082 26.94377 4.10324 -0.25859 8.22012 -74.34368 -4.6957 -1.64391 3.09535 3.46826 16.07715 -21.32641 10.88451 -9.85478 -14.65346 1.86059 -3.38041 -11.50531 -15.95562 7.71894 7.81145 13.5341
0.00341 0.57933 0.00114 178.0398 0 2.74551 9.45453 -0.5031 -0.64268 -33.54649 2.66498 3.19864 24.20933 -13.22386 -3.14804 9.86559 84.23758 1.70144 2.164 26.47348 4.09514 -0.20492 8.17105 -74.30284 -4.68401 -1.67807 3.15127 3.46241 16.07848 -21.33393 10.8792 -9.85099 -14.67358 1.93312 -3.39499 -11.51803 -15.9979 7.714 7.81711 13.54973
0.00395 0.57934 0.00135 178.04643 0 2.72984 9.28905 -0.46852 -0.77206 -32.99669 2.65565 3.20662 23.70427 -13.20898 -3.3861 9.78573 84.32881 1.76167 2.23659 25.97727 4.08719 -0.13505 8.10863 -74.25315 -4.66839 -1.72232 3.18603 3.45445 16.05959 -21.28722 10.85462 -9.83505 -14.68143 2.00458 -3.40249 -11.53037 -16.03134 7.70272 7.82052 13.56998
0.00446 0.57932 0.00152 178.05295 0 2.73236 9.12994 -0.45419 -0.87156 -32.50162 2.66934 3.20077 23.24638 -13.20202 -3.66734 9.73583 84.40199 1.80438 2.29356 25.53342 4.07638 -0.10272 8.0695 -74.21771 -4.66071 -1.74691 3.26305 3.45011 16.07479 -21.349 10.87021 -9.84492 -14.71501 2.08108 -3.42421 -11.54541 -16.08562 7.70601 7.82938 13.57621
0.00488 0.57924 0.00159 178.0488 0 2.78805 8.9863 -0.50031 -0.87744 -32.15351 2.74821 3.15457 22.91575 -13.2146 -4.06636 9.77649 84.42259 1.7939 2.30454 25.23016 4.05868 -0.17352 8.10228 -74.22616 -4.67691 -1.7129 3.4682 3.45689 16.19989 -21.73043 11.0018 -9.92848 -14.82335 2.17239 -3.48853 -11.56798 -16.1989 7.74963 7.85328 13.54924
0.00525 0.57914 0.00163 178.04424 0 2.86157 8.8507 -0.56613 -0.85271 -31.86339 2.84921 3.09417 22.63415 -13.23429 -4.50601 9.84722 84.42556 1.76575 2.29909 24.98125 4.03874 -0.28033 8.15849 -74.24941 -4.70075 -1.65955 3.71389 3.46736 16.35867 -22.21808 11.1728 -10.03741 -14.95662 2.26742 -3.56651 -11.59253 -16.33182 7.80748 7.88242 13.50848
0.00562 0.57906 0.00167 178.04238 0 2.9252 8.71512 -0.6202 -0.8442 -31.55343 2.93736 3.03994 22.33404 -13.24935 -4.92149 9.9017 84.4388 1.74726 2.30008 24.71149 4.02113 -0.36854 8.20181 -74.26576 -4.71976 -1.61726 3.93394 3.47588 16.49651 -22.64558 11.32179 -10.13232 -15.07566 2.358 -3.63617 -11.61464 -16.45281 7.85757 7.90852 13.4734
0.00608 0.57896 0.00173 178.03107 0 2.99637 8.56332 -0.6859 -0.82724 -31.2147 3.03741 2.9868 22.01753 -13.27053 -5.36205 9.96637 84.44291 1.72261 2.30543 24.42464 3.99795 -0.46842 8.254 -74.28254 -4.74438 -1.56564 4.18454 3.48541 16.65736 -23.12294 11.48756 -10.23722 -15.20729 2.46099 -3.71493 -11.64355 -16.58705 7.9129 7.93732 13.44054
0.00635 0.57887 0.00175 178.0387 0 3.05606 8.44764 -0.7322 -0.81997 -30.95045 3.1181 2.92846 21.74701 -13.28095 -5.75998 10.01733 84.46128 1.70604 2.29831 24.18706 3.98551 -0.55033 8.2935 -74.3018 -4.75929 -1.52865 4.38094 3.49382 16.77834 -23.52174 11.62845 -10.32811 -15.31827 2.53846 -3.77772 -11.65868 -16.69801 7.96115 7.96193 13.39958
0.00611 0.57882 0.0017 178.10107 0 3.07981 8.42764 -0.71922 -0.84878 -30.87391 3.13754 2.8542 21.59128 -13.25532 -6.02499 10.02226 84.52855 1.71972 2.25405 24.06656 4.00757 -0.59061 8.29239 -74.3278 -4.74421 -1.53805 4.41997 3.49764 16.78344 -23.67879 11.68506 -10.36776 -15.36891 2.54771 -3.79541 -11.6352 -16.74154 7.98215 7.97197 13.34335
0.00567 0.57877 0.00161 178.18196 0 3.09139 8.44407 -0.6864 -0.88805 -30.87106 3.13727 2.7761 21.4801 -13.21947 -6.24592 10.0128 84.6099 1.74152 2.19881 23.99473 4.03979 -0.60831 8.27785 -74.35534 -4.71933 -1.5625 4.40276 3.50043 16.74669 -23.7533 11.71671 -10.39405 -15.39756 2.53044 -3.79605 -11.59794 -16.76059 7.99657 7.97806 13.27883
0.00531 0.57872 0.00153 178.25262 0 3.10841 8.44536 -0.66298 -0.92095 -30.83719 3.14737 2.703 21.34891 -13.19112 -6.49096 10.01029 84.68129 1.75705 2.15316 23.90458 4.06456 -0.62532 8.26931 -74.37982 -4.69978 -1.57929 4.40969 3.50399 16.72792 -23.86445 11.7632 -10.43001 -15.43416 2.52319 -3.80308 -11.56678 -16.78971 8.0164 7.98686 13.21581
0.005 0.57867 0.00149 178.33074 0 3.1263 8.44134 -0.6378 -0.95898 -30.79528 3.15174 2.61561 21.21904 -13.15067 -6.72247 10.00625 84.76678 1.78245 2.08827 23.80089 4.10108 -0.69 8.26161 -74.41429 -4.67679 -1.59918 4.42354 3.50603 16.71568 -23.98158 11.7948 -10.44981 -15.47943 2.52481 -3.81666 -11.53566 -16.82397 8.0254 7.99134 13.16198
0.00454 0.57862 0.00136 178.39796 0 3.13941 8.45643 -0.61236 -0.99002 -30.78639 3.16376 2.55735 21.09558 -13.1333 -6.96835 10.00262 84.82686 1.79 2.06014 23.73549 4.11571 -0.64934 8.24916 -74.42874 -4.65856 -1.61604 4.4097 3.51142 16.67821 -24.06705 11.85286 -10.50211 -15.50215 2.50143 -3.81194 -11.50206 -16.84149 8.05661 8.00462 13.0871
0.00377 0.57859 0.00105 178.42874 0 3.14069 8.51951 -0.58208 -0.99244 -30.85503 3.19578 2.57969 20.9858 -13.17835 -7.28884 9.99442 84.81008 1.74161 2.14414 23.77063 4.0664 -0.32451 8.22243 -74.38192 -4.65569 -1.62445 4.32728 3.52252 16.59205 -24.06876 11.97317 -10.62682 -15.45847 2.41753 -3.76425 -11.45752 -16.81918 8.13832 8.03628 12.95767
0.00286 0.57857 0.00066 178.44845 0 3.13765 8.59971 -0.55385 -0.98899 -30.95351 3.23716 2.63166 20.8796 -13.2475 -7.62092 9.98849 84.76792 1.67597 2.26425 23.84133 3.99505 0.1063 8.19198 -74.31568 -4.65798 -1.62875 4.21952 3.53793 16.47985 -24.04348 12.1235 -10.78801 -15.39431 2.3093 -3.69791 -11.4126 -16.7813 8.24456 8.07813 12.80748
0.002 0.57854 0.00027 178.47412 0 3.13769 8.6694 -0.53043 -0.99269 -31.03486 3.27809 2.67072 20.76675 -13.30826 -7.93128 9.98772 84.73966 1.62134 2.36255 23.89082 3.93423 0.4891 8.16615 -74.26215 -4.65794 -1.63261 4.12737 3.55356 16.37228 -24.04157 12.27151 -10.94643 -15.34584 2.21049 -3.63796 -11.37239 -16.7494 8.34803 8.11989 12.66543
0.00116 0.57853 1e-05 178.49565 0 3.13315 8.75209 -0.48192 -0.9774 -31.13288 3.30239 2.70749 20.6759 -13.35846 -8.30831 9.96121 84.702 1.55347 2.48271 23.96248 3.87097 0.87058 8.12792 -74.193 -4.65734 -1.64656 4.01722 3.55912 16.29335 -23.99222 12.37261 -11.04786 -15.27042 2.11642 -3.58672 -11.31146 -16.7188 8.41715 8.14261 12.52714
0.00026 0.57848 -0.00053 178.524 0 3.13662 8.81107 -0.4866 -1.00065 -31.20355 3.36368 2.75586 20.54047 -13.43578 -8.5514 9.98791 84.67759 1.50912 2.5667 23.99686 3.80822 1.2815 8.11425 -74.15083 -4.65946 -1.63856 3.93773 3.58777 16.14953 -24.03353 12.57668 -11.27462 -15.24562 2.00861 -3.51253 -11.29513 -16.68525 8.56219 8.20714 12.37797
-0.00069 0.57835 -0.00179 178.56499 0 3.16799 8.8014 -0.63518 -1.12717 -31.18026 3.52547 2.83108 20.2728 -13.5877 -8.40861 10.17004 84.69712 1.53289 2.53696 23.91006 3.7458 1.73153 8.17422 -74.19601 -4.66636 -1.56892 3.96273 3.67083 15.82941 -24.35564 13.07642 -11.85712 -15.37299 1.85814 -3.38465 -11.39045 -16.62505 8.92465 8.38788 12.18869
-0.00168 0.57818 -0.00335 178.61495 0 3.20618 8.76654 -0.8371 -1.29337 -31.13004 3.72375 2.91645 19.96176 -13.76468 -8.1338 10.40359 84.73067 1.58108 2.47073 23.78628 3.68615 2.20996 8.2583 -74.26756 -4.67621 -1.47768 4.0172 3.77909 15.44557 -24.76562 13.67514 -12.56069 -15.55033 1.6985 -3.23334 -11.53286 -16.56985 9.36047 8.61001 11.99206
-0.00268 0.57802 -0.00481 178.66632 0 3.23891 8.74282 -1.01718 -1.4445 -31.09915 3.90548 2.99604 19.67535 -13.92703 -7.92763 10.60824 84.75687 1.61879 2.42432 23.6851 3.62897 2.68654 8.32801 -74.32164 -4.68566 -1.3976 4.04952 3.88059 15.09358 -25.12045 14.2167 -13.19723 -15.70055 1.54806 -3.08965 -11.66145 -16.52316 9.7533 8.81078 11.80873
-0.00359 0.57789 -0.00611 178.69349 0 3.28378 8.72255 -1.18997 -1.58336 -31.03971 4.08897 3.0822 19.36704 -14.10551 -7.68323 10.83798 84.78599 1.65335 2.3648 23.55967 3.55386 3.12216 8.41147 -74.39793 -4.6911 -1.31164 4.11788 3.96022 14.72912 -25.53952 14.81167 -13.88741 -15.87028 1.36862 -2.9586 -11.75817 -16.41755 10.18639 9.02165 11.58254
-0.00468 0.57769 -0.00781 178.7742 0 3.30214 8.68697 -1.38709 -1.75673 -31.03256 4.27538 3.15593 19.09559 -14.25404 -7.48964 11.02554 84.81313 1.70042 2.32432 23.4768 3.51885 3.64593 8.47271 -74.43483 -4.70582 -1.23291 4.11852 4.09412 14.37499 -25.84478 15.31732 -14.49205 -16.0095 1.25639 -2.79524 -11.93226 -16.45214 10.5544 9.22245 11.44424
-0.00623 0.57734 -0.01052 178.99372 0 3.27065 8.63111 -1.66809 -2.01986 -31.17874 4.47788 3.19958 18.92187 -14.33109 -7.44624 11.10214 84.82746 1.77657 2.33782 23.50833 3.57782 4.42592 8.46117 -74.35366 -4.74289 -1.17888 3.92494 4.34703 14.07007 -25.82495 15.56236 -14.84788 -16.06808 1.25911 -2.55486 -12.30883 -16.7356 10.70904 9.37322 11.55
-0.00793 0.5769 -0.01363 179.26845 0 3.20775 8.55746 -1.96607 -2.31523 -31.37726 4.67895 3.22911 18.78878 -14.37409 -7.4631 11.13122 84.84009 1.86422 2.37289 23.58545 3.67971 5.2884 8.42757 -74.23265 -4.78961 -1.13302 3.66224 4.65778 13.77528 -25.68567 15.71232 -15.10953 -16.09027 1.34432 -2.28218 -12.76039 -17.1859 10.7975 9.51376 11.74471
-0.00954 0.57647 -0.01656 179.52211 0 3.14265 8.48177 -2.23684 -2.59362 -31.55095 4.86936 3.2604 18.64749 -14.42077 -7.46645 11.17002 84.85635 1.9467 2.40294 23.6503 3.77318 6.10095 8.40757 -74.13176 -4.83364 -1.0838 3.43142 4.95882 13.47472 -25.59428 15.89853 -15.40365 -16.12027 1.43867 -2.01951 -13.17892 -17.64949 10.92767 9.66801 11.89904
-0.01125 0.57616 -0.01947 179.75795 0 3.14672 8.44883 -2.59209 -2.8848 -31.73076 5.10837 3.31121 18.46408 -14.51684 -7.4048 11.2603 84.86145 2.03086 2.41186 23.68074 3.82178 6.97129 8.37293 -74.02297 -4.87082 -1.03226 3.19997 5.19274 13.18354 -25.53313 16.11632 -15.74789 -16.19344 1.33253 -1.77361 -13.59958 -17.73604 11.01525 9.78907 12.05272
